<svg id="Layer_1" data-name="Layer 1" xmlns="http://www.w3.org/2000/svg" viewBox="0 0 801.12 822.67"><defs><style>.cls-1,.cls-2,.cls-3,.cls-4,.cls-5{fill:none;stroke-miterlimit:10;}.cls-1,.cls-2,.cls-3{stroke:#4dacdb;}.cls-1{stroke-width:7.38px;}.cls-2{stroke-width:5.22px;}.cls-3{stroke-width:13.32px;}.cls-4{stroke:#498df2;stroke-width:28px;}.cls-5{stroke:#231f20;stroke-width:7.63px;}.cls-6{fill:#46e8c8;}.cls-7{fill:#49e7f2;}</style></defs><g id="lines_and" data-name="lines and"><line class="cls-1" x1="204.74" y1="662.35" x2="204.74" y2="756.17"/><polyline class="cls-1" points="263.51 662.35 263.51 797.4 193.4 797.4"/><line class="cls-1" x1="319.18" y1="662.35" x2="319.18" y2="699.47"/><polyline class="cls-1" points="368.66 662.35 368.66 756.17 327.43 756.17"/><polyline class="cls-1" points="398.56 662.35 398.56 787.1 462.48 787.1"/><line class="cls-2" x1="444.95" y1="658.23" x2="444.95" y2="720.6"/><line class="cls-1" x1="521.24" y1="662.35" x2="521.24" y2="809.78"/><line class="cls-1" x1="570.72" y1="658.23" x2="570.72" y2="690.19"/><polyline class="cls-1" points="612.99 662.35 612.99 761.32 577.94 761.32"/><line class="cls-1" x1="156.29" y1="618.02" x2="72.79" y2="618.02"/><polyline class="cls-1" points="156.29 563.38 18.15 563.38 15.96 756.17"/><line class="cls-1" x1="156.29" y1="512.87" x2="120.21" y2="512.87"/><polyline class="cls-1" points="156.29 457.2 67.63 457.2 67.63 512.87"/><polyline class="cls-1" points="156.29 423.18 29.49 423.18 29.49 314.93"/><line class="cls-1" x1="156.29" y1="369.05" x2="111.96" y2="369.05"/><polyline class="cls-1" points="156.29 287.1 84.13 287.1 84.13 332.46"/><line class="cls-1" x1="156.29" y1="239.67" x2="106.81" y2="239.67"/><polyline class="cls-1" points="156.29 196.37 67.63 196.37 67.63 82.97"/><polyline class="cls-1" points="218.15 158.23 218.15 110.81 169.16 110.81"/><line class="cls-1" x1="251.14" y1="156.11" x2="251.14" y2="27.24"/><polyline class="cls-1" points="289.28 155.1 289.28 76.75 327.43 76.75"/><line class="cls-1" x1="361.45" y1="155.11" x2="361.45" y2="26.24"/><polyline class="cls-1" points="416.08 155.1 416.08 108.71 439.8 108.71"/><line class="cls-1" x1="462.48" y1="155.11" x2="462.48" y2="46.86"/><polyline class="cls-1" points="507.84 155.1 507.84 90.67 535.67 90.67"/><polyline class="cls-1" points="577.72 158.23 577.72 15.96 443.09 15.96"/><line class="cls-1" x1="612.99" y1="155.11" x2="612.99" y2="64.38"/><polyline class="cls-1" points="655.26 196.37 752.17 196.37 752.17 89.67"/><line class="cls-1" x1="661.94" y1="248.95" x2="710.39" y2="248.95"/><polyline class="cls-1" points="661.94 295.34 744.95 295.34 744.95 239.67"/><polyline class="cls-1" points="661.94 332.46 730.52 332.46 730.52 378.85"/><polyline class="cls-1" points="661.94 413.9 785.16 413.9 785.16 323.61"/><line class="cls-1" x1="661.94" y1="457.2" x2="710.39" y2="457.2"/><polyline class="cls-1" points="661.94 519.05 752.17 519.05 752.17 485.03"/><line class="cls-1" x1="661.94" y1="572.66" x2="718.15" y2="572.66"/><polyline class="cls-1" points="661.94 613.9 744.95 613.9 744.95 736.06"/><circle class="cls-3" cx="67.63" cy="75.75" r="9.3"/><circle class="cls-3" cx="92.89" cy="239.67" r="9.3"/><circle class="cls-3" cx="84.13" cy="326.79" r="9.3"/><circle class="cls-3" cx="29.49" cy="309.78" r="9.3"/><circle class="cls-3" cx="106.81" cy="512.87" r="9.3"/><circle class="cls-3" cx="67.63" cy="503.57" r="9.3"/><circle class="cls-3" cx="58.33" cy="618.02" r="9.3"/><circle class="cls-3" cx="204.74" cy="752.02" r="9.3"/><circle class="cls-3" cx="184.1" cy="797.4" r="9.3"/><circle class="cls-3" cx="319.18" cy="711.84" r="9.3"/><circle class="cls-3" cx="314.72" cy="756.17" r="9.3"/><circle class="cls-3" cx="458" cy="787.1" r="9.3"/><circle class="cls-3" cx="444.95" cy="729.88" r="9.3"/><circle class="cls-3" cx="521.24" cy="806.7" r="9.3"/><circle class="cls-3" cx="570.72" cy="702.54" r="9.3"/><circle class="cls-3" cx="566.77" cy="761.32" r="9.3"/><circle class="cls-3" cx="744.95" cy="739.18" r="9.3"/><circle class="cls-3" cx="726.35" cy="572.66" r="9.3"/><circle class="cls-3" cx="707.05" cy="457.2" r="9.3"/><circle class="cls-3" cx="752.17" cy="475.8" r="9.3"/><circle class="cls-3" cx="785.16" cy="317.51" r="9.3"/><circle class="cls-3" cx="744.95" cy="230.37" r="9.3"/><circle class="cls-3" cx="752.17" cy="77.82" r="9.3"/><circle class="cls-3" cx="612.99" cy="59.22" r="9.3"/><circle class="cls-3" cx="531.06" cy="89.67" r="9.3"/><circle class="cls-3" cx="462.48" cy="51.98" r="9.3"/><circle class="cls-3" cx="434.64" cy="108.71" r="9.3"/><circle class="cls-3" cx="430.08" cy="15.96" r="9.3"/><circle class="cls-3" cx="251.14" cy="19.57" r="9.3"/><circle class="cls-3" cx="174.22" cy="110.81" r="9.3"/><circle class="cls-3" cx="361.45" cy="19.57" r="9.3"/><circle class="cls-3" cx="322.25" cy="75.75" r="9.3"/><circle class="cls-3" cx="707.05" cy="248.95" r="9.3"/><circle class="cls-3" cx="730.52" cy="373.67" r="9.3"/><circle class="cls-3" cx="15.96" cy="754.2" r="9.3"/><circle class="cls-3" cx="102.66" cy="369.05" r="9.3"/></g><g id="body"><rect class="cls-1" x="187.94" y="187.81" width="442.9" height="442.9" rx="15.26"/><rect class="cls-4" x="169.16" y="169.02" width="479.92" height="479.92" rx="25.25"/><rect class="cls-5" x="180.52" y="180.39" width="457.73" height="457.73" rx="25.25"/></g><g id="insde"><path class="cls-6" d="M488.18,646.36c-17.9,0-36.12-2.38-51.24-6.79-24.35-7.08-40.85-19.35-47.74-35.48-12.88-30.17,4.85-62.68,19.09-88.8,1.45-2.66,2.87-5.25,4.21-7.77,3.24-6.09,6.55-12.17,10.05-18.61,40.69-74.83,86.81-159.65,13.64-224.76-36.87-32.81-77.84-35.81-125.26-9.18-38.07,21.38-64.12,70.14-64.56,102.27-.41,29.86,24.78,65.64,60.89,87.64a9.4,9.4,0,0,1,3.37,12.45h0A9.41,9.41,0,0,1,297.47,461c-42.11-25.59-70.47-67.26-70-104,.27-19.7,7.95-43.43,21.08-65.1,13.92-23,32.78-42,53.11-53.37,54.54-30.63,104-26.75,147,11.54,37.75,33.59,51.52,74.46,42.1,125-7.9,42.36-31.17,85.16-51.7,122.92-3.48,6.4-6.77,12.44-10,18.46-1.37,2.57-2.82,5.22-4.29,7.93-12.94,23.72-27.6,50.6-18.31,72.36,9.69,22.68,53.05,32.54,90.86,30.57,40.33-2.12,72.75-14.62,86.74-33.45,13.55-18.24,7.12-40.13.31-63.29-1.49-5.09-3-10.35-4.3-15.44-21-84.69-10.31-167.15,33.75-258.77A9.45,9.45,0,0,1,626.65,252h0a9.45,9.45,0,0,1,4.26,12.55c-42,87.45-52.32,165.84-32.42,246,1.17,4.71,2.59,9.54,4.09,14.67,7.45,25.34,15.89,54.07-3.27,79.87-24.94,33.57-78.87,39.88-100.9,41C495,646.27,491.61,646.36,488.18,646.36Z" transform="translate(-22.88 -23.02)"/><path class="cls-7" d="M345.28,340.47c3.09-15.94,5.55-38.14,5.55-50,2.47-3.13,7.41-4.69,12.65-4.69,11.11,0,20.67,8.44,20.67,25.32,0,3.76-1.85,16.26-4.94,27.2,14.81-1.25,28.39-3.12,38.26-7.5,5.86,1.88,8.63,8.13,8.63,13.76,0,15-13.57,23.44-53.67,25.94-3.09,13.45-9.87,35.65-12,45-1.55,1.57-5.56,2.82-9.87,2.82-8.95,0-14.81-7.82-14.81-22.2,0-5.94,1.54-17.51,3.08-25.32-13.88,0-30.85-.63-39.79-1.25-2.16-1.88-3.09-5.63-3.09-8.13,0-9.38,8-18.13,29.93-19.7C332.94,341.41,339.42,340.78,345.28,340.47Z" transform="translate(-22.88 -23.02)"/><path class="cls-7" d="M554.53,530.83l-.15,1.37q-1.35,5.34-3.62,15.72-.45,5-2,14.66-.31,1.38-8.59,1.83-5.73.32-16.27,0-13.55-.3-12.65-.3-9.35,0-27.72,1.75T456,567.62q-4.06,0-4.07-5,0-7,8.74-29.16.75-2.13,4.22-2.13,5.26,0,15.51.38t15.52.38q9.18,0,27.71-1.91t27.72-1.91Q554.69,528.23,554.53,530.83Z" transform="translate(-22.88 -23.02)"/></g></svg>